<svg xmlns="http://www.w3.org/2000/svg" xmlns:xlink="http://www.w3.org/1999/xlink" fill="none" version="1.1" width="12.00000026818006" height="12.00000026818006" viewBox="0 0 12.00000026818006 12.00000026818006"><defs><clipPath id="master_svg0_254_20826"><rect x="2.681800594928063e-7" y="12.00000026818006" width="12" height="12" rx="0"/></clipPath></defs><g transform="matrix(1,-2.2348338291067193e-8,-2.2348338291067193e-8,-1,2.6818006548618503e-7,24.000000536360126)" clip-path="url(#master_svg0_254_20826)"><g><path d="M6.00001700255506,15.07495144005506C5.849246002555059,15.07506838405506,5.705083002555059,15.13685254005506,5.60101700255506,15.245951440055059C5.380064902555059,15.47773044005506,5.380064902555059,15.842172440055059,5.60101700255506,16.07395144005506L10.13701300255506,20.78395144005506C10.35364300255506,21.013161440055057,10.71839300255506,21.013161440055057,10.93501300255506,20.78395144005506C11.15597300255506,20.55217144005506,11.15597300255506,20.18773144005506,10.93501300255506,19.95595144005506L6.399017002555059,15.245951440055059C6.29495200255506,15.13685214005506,6.15078900255506,15.07506802705506,6.00001700255506,15.07495144005506Z" fill="#4C4C4C" fill-opacity="1"/></g><g><path d="M6.00000226036756,15.07495144005506C5.849232260367559,15.07506838405506,5.70507226036756,15.13685254005506,5.60100226036756,15.245951440055059L1.0650062603675594,19.95595144005506C0.8440541603675595,20.18773144005506,0.8440541603675595,20.55217144005506,1.0650062603675594,20.78395144005506C1.2816302603675596,21.013161440055057,1.6463822603675595,21.013161440055057,1.8630062603675595,20.78395144005506L6.39900226036756,16.07395144005506C6.61996226036756,15.842172440055059,6.61996226036756,15.47773044005506,6.39900226036756,15.245951440055059C6.294942260367559,15.13685214005506,6.15078226036756,15.07506802705506,6.00000226036756,15.07495144005506Z" fill="#4C4C4C" fill-opacity="1"/></g></g></svg>