<svg xmlns="http://www.w3.org/2000/svg" xmlns:xlink="http://www.w3.org/1999/xlink" fill="none" version="1.1" width="18" height="18" viewBox="0 0 18 18"><defs><clipPath id="master_svg0_254_18860"><rect x="0" y="18" width="18" height="18" rx="0"/></clipPath></defs><g transform="matrix(0,-1,1,0,-18,18)" clip-path="url(#master_svg0_254_18860)"><g><path d="M4.075103259765625,26.41259815625C3.793853759765625,26.69384815625,3.793853759765625,27.14912115625,4.075103259765625,27.43037015625L10.905966259765625,34.26123015625C11.187216259765625,34.54248015625,11.642486259765626,34.54248015625,11.923736259765626,34.26123015625C12.204986259765626,33.97998015625,12.204986259765626,33.52471015625,11.923736259765626,33.24346015625L5.0928762597656245,26.41259815625C4.811627259765625,26.13134765625,4.356354259765625,26.13134765625,4.075103259765625,26.41259815625Z" fill="#4A4A4A" fill-opacity="1"/></g><g><path d="M4.075103259765625,27.45556609375C4.356353259765625,27.73681609375,4.811627259765625,27.73681609375,5.0928762597656245,27.45556609375L11.923736259765626,20.62470609375C12.204986259765626,20.34345709375,12.204986259765626,19.88818409375,11.923736259765626,19.60693409375C11.642486259765626,19.32568359375,11.187216259765625,19.32568359375,10.905966259765625,19.60693409375L4.075103259765625,26.437796093750002C3.793853759765625,26.719046093750002,3.793853759765625,27.17431609375,4.075103259765625,27.45556609375Z" fill="#4A4A4A" fill-opacity="1"/></g></g></svg>