<svg xmlns="http://www.w3.org/2000/svg" xmlns:xlink="http://www.w3.org/1999/xlink" fill="none" version="1.1" width="16" height="16" viewBox="0 0 16 16"><defs><clipPath id="master_svg0_254_00991"><rect x="0" y="0" width="16" height="16" rx="0"/></clipPath></defs><g clip-path="url(#master_svg0_254_00991)"><g><path d="M12.96793359375,4.23998583984375L10.98393359375,4.23998583984375L10.98393359375,3.43998583984375C10.98394359375,2.78477383984375,10.45513359375,2.25238346984375,9.79993359375,2.24798583984375L5.79993359375,2.24798583984375C5.14160359375,2.25238918984375,4.61150359375,2.78965683984375,4.61593359375,3.44798583984375L4.61593359375,4.24798583984375L2.63193359375,4.24798583984375C2.41101959375,4.24798583984375,2.23193359375,4.42707583984375,2.23193359375,4.64798583984375C2.23193359375,4.86889583984375,2.41101959375,5.04798583984375,2.63193359375,5.04798583984375L12.96793359375,5.04798583984375C13.19103359375,5.04798583984375,13.37193359375,4.867105839843751,13.37193359375,4.64398583984375C13.37193359375,4.42086583984375,13.19103359375,4.23998583984375,12.96793359375,4.23998583984375ZM10.18393359375,4.23998583984375L5.38393359375,4.23998583984375L5.38393359375,3.43998583984375C5.38819359375,3.22085883984375,5.56480359375,3.04424183984375,5.78393359375,3.03998583984375L9.78393359375,3.03998583984375C10.002423593749999,3.03979683984375,10.17703359375,3.22168983984375,10.16793359375,3.43998583984375L10.18393359375,4.23998583984375ZM7.00793359375,10.58398583984375L7.00793359375,6.22398583984375C7.00793359375,6.00307583984375,6.82884359375,5.8239858398437505,6.60793359375,5.8239858398437505C6.38702359375,5.8239858398437505,6.20793359375,6.00307583984375,6.20793359375,6.22398583984375L6.20793359375,10.58398583984375C6.20793359375,10.80489583984375,6.38702359375,10.98398583984375,6.60793359375,10.98398583984375C6.82884359375,10.98398583984375,7.00793359375,10.80489583984375,7.00793359375,10.58398583984375ZM9.39193359375,10.58398583984375L9.39193359375,6.22398583984375C9.39193359375,6.00307583984375,9.21284359375,5.8239858398437505,8.99193359375,5.8239858398437505C8.77102359375,5.8239858398437505,8.59193359375,6.00307583984375,8.59193359375,6.22398583984375L8.59193359375,10.58398583984375C8.59193359375,10.80489583984375,8.77102359375,10.98398583984375,8.99193359375,10.98398583984375C9.21284359375,10.98398583984375,9.39193359375,10.80489583984375,9.39193359375,10.58398583984375Z" fill="#444444" fill-opacity="1"/></g><g><path d="M11.4961015625,5.4159750938875C11.2751915625,5.4159750938875,11.0961015625,5.5950615546875,11.0961015625,5.8159755546875L11.0961015625,11.7759735546875C11.0961015625,12.659633554687499,10.3797615625,13.3759735546875,9.4961015625,13.3759735546875L6.1041015625,13.3759735546875C5.2204415625,13.3759735546875,4.5041015625,12.659633554687499,4.5041015625,11.7759735546875L4.5041015625,5.8159755546875C4.5041015625,5.5950615546875,4.3250155625,5.4159750938875,4.1041015625,5.4159750938875C3.8831875625,5.4159750938875,3.7041015625,5.5950615546875,3.7041015625,5.8159755546875L3.7041015625,11.7759735546875C3.704101324081,13.1014635546875,4.7786215625,14.1759735546875,6.1041015625,14.1759735546875L9.5041015625,14.1759735546875C10.8295815625,14.1759735546875,11.9041015625,13.1014635546875,11.9041015625,11.7759735546875L11.9041015625,5.8159755546875C11.9041415625,5.5918985546875,11.7201315625,5.4114933046875,11.4961015625,5.4159750938875Z" fill="#444444" fill-opacity="1"/></g></g></svg>