<svg xmlns="http://www.w3.org/2000/svg" xmlns:xlink="http://www.w3.org/1999/xlink" fill="none" version="1.1" width="29" height="29" viewBox="0 0 29 29"><defs><clipPath id="master_svg0_254_20893"><rect x="6.5" y="6.5" width="16" height="16" rx="0"/></clipPath></defs><g><g clip-path="url(#master_svg0_254_20893)"><g><path d="M14.16399951171875,22.355996948242186C11.90799951171875,20.379996948242187,10.61199951171875,17.53199694824219,10.61199951171875,14.539996948242187C10.61199951171875,11.531996948242188,11.91599951171875,8.667996948242187,14.18799951171875,6.6999969482421875L14.84399951171875,7.451996948242187C12.78799951171875,9.235996948242187,11.61199951171875,11.819996948242188,11.61199951171875,14.539996948242187C11.61199951171875,17.243996948242188,12.77999951171875,19.819996948242185,14.81999951171875,21.603996948242187L14.16399951171875,22.355996948242186Z" fill="#303742" fill-opacity="1"/></g><g><path d="M14.77197998046875,22.355996948242186L14.11598018046875,21.603996948242187C16.15597998046875,19.819996948242185,17.32397998046875,17.243996948242188,17.32397998046875,14.539996948242187C17.32397998046875,11.819996948242188,16.14797998046875,9.235996948242187,14.09197998046875,7.451996948242187L14.74797998046875,6.6999969482421875C17.01997998046875,8.675996948242187,18.32397998046875,11.531996948242188,18.32397998046875,14.539996948242187C18.32397998046875,17.539996948242187,17.03597998046875,20.38799694824219,14.77197998046875,22.355996948242186Z" fill="#303742" fill-opacity="1"/></g><g><path d="M7.55597802734375,14.011999755859375C7.57197802734375,13.763999755859375,7.60397802734375,13.515999755859376,7.64397802734375,13.275999755859374C8.23597802734375,9.955999755859375,11.11597802734375,7.547999755859375,14.49197802734375,7.547999755859375C17.34797802734375,7.547999755859375,19.89997802734375,9.291999755859376,20.95597802734375,11.915999755859374L22.01997802734375,11.915999755859374C20.92397802734375,8.715999755859375,17.89997802734375,6.555999755859375,14.49997802734375,6.555999755859375C10.63597802734375,6.556000001728375,7.33997802734375,9.307999755859374,6.66797802734375,13.107999755859375C6.58797802734375,13.571999755859375,6.53997802734375,14.043999755859375,6.53997802734375,14.515999755859376L6.53997802734375,15.011999755859375L21.44397802734375,15.011999755859375C21.427978027343748,15.267999755859375,21.39597802734375,15.523999755859375,21.34797802734375,15.779999755859375C20.73997802734375,19.075999755859375,17.85997802734375,21.467999755859374,14.49997802734375,21.467999755859374C11.60397802734375,21.467999755859374,9.03597802734375,19.691999755859374,8.00397802734375,17.011999755859375L6.93997802734375,17.011999755859375C8.01997802734375,20.283999755859377,11.05997802734375,22.475999755859377,14.49997802734375,22.475999755859377C18.33997802734375,22.475999755859377,21.63597802734375,19.739999755859372,22.32397802734375,15.963999755859374C22.41197802734375,15.491999755859375,22.45197802734375,15.003999755859375,22.45197802734375,14.515999755859376L22.45197802734375,14.019999755859375L7.55597802734375,14.019999755859375L7.55597802734375,14.011999755859375Z" fill="#444444" fill-opacity="1"/></g></g><g><ellipse cx="14.5" cy="14.5" rx="14" ry="14" fill-opacity="0" stroke-opacity="1" stroke="#D6D6D6" fill="none" stroke-width="1"/></g></g></svg>