<svg xmlns="http://www.w3.org/2000/svg" xmlns:xlink="http://www.w3.org/1999/xlink" fill="none" version="1.1" width="16" height="16" viewBox="0 0 16 16"><defs><clipPath id="master_svg0_254_8086"><rect x="0" y="0" width="16" height="16" rx="0"/></clipPath></defs><g clip-path="url(#master_svg0_254_8086)"><g><path d="M3.622314453125,7.478118896484375C3.372314453125,7.728118896484375,3.372314453125,8.132805896484374,3.622314453125,8.382808896484375L9.694184453125,14.454678896484374C9.944194453125,14.704678896484374,10.348874453125,14.704678896484374,10.598874453125,14.454678896484374C10.848874453125,14.204678896484374,10.848874453125,13.799988896484376,10.598874453125,13.549988896484376L4.527004453125,7.478118896484375C4.277002453125,7.228118896484375,3.872314453125,7.228118896484375,3.622314453125,7.478118896484375Z" fill="#4A4A4A" fill-opacity="1"/></g><g><path d="M3.622314453125,8.404691103515624C3.872314453125,8.654691103515624,4.277002453125,8.654691103515624,4.527004453125,8.404691103515624L10.598874453125,2.332821103515625C10.848874453125,2.082819103515625,10.848874453125,1.678131103515625,10.598874453125,1.428131103515625C10.348874453125,1.178131103515625,9.944194453125,1.178131103515625,9.694184453125,1.428131103515625L3.622314453125,7.500001103515625C3.372314453125,7.750001103515625,3.372314453125,8.154691103515624,3.622314453125,8.404691103515624Z" fill="#4A4A4A" fill-opacity="1"/></g></g></svg>