<svg xmlns="http://www.w3.org/2000/svg" xmlns:xlink="http://www.w3.org/1999/xlink" fill="none" version="1.1" width="18" height="18" viewBox="0 0 18 18"><defs><clipPath id="master_svg0_254_19188"><rect x="0" y="0" width="18" height="18" rx="0"/></clipPath></defs><g transform="matrix(0,1,1,0,0,0)" clip-path="url(#master_svg0_254_19188)"><g><path d="M4.075103259765625,8.41259815625C3.793853759765625,8.69384815625,3.793853759765625,9.14912115625,4.075103259765625,9.43037015625L10.905966259765625,16.26123015625C11.187216259765625,16.54248015625,11.642486259765626,16.54248015625,11.923736259765626,16.26123015625C12.204986259765626,15.97998015625,12.204986259765626,15.52471015625,11.923736259765626,15.24346015625L5.0928762597656245,8.41259815625C4.811627259765625,8.13134765625,4.356354259765625,8.13134765625,4.075103259765625,8.41259815625Z" fill="#4A4A4A" fill-opacity="1"/></g><g><path d="M4.075103259765625,9.45556609375C4.356353259765625,9.73681609375,4.811627259765625,9.73681609375,5.0928762597656245,9.45556609375L11.923736259765626,2.62470609375C12.204986259765626,2.34345709375,12.204986259765626,1.88818409375,11.923736259765626,1.60693409375C11.642486259765626,1.32568359375,11.187216259765625,1.32568359375,10.905966259765625,1.60693409375L4.075103259765625,8.43779609375C3.793853759765625,8.71904609375,3.793853759765625,9.17431609375,4.075103259765625,9.45556609375Z" fill="#4A4A4A" fill-opacity="1"/></g></g></svg>