<svg xmlns="http://www.w3.org/2000/svg" xmlns:xlink="http://www.w3.org/1999/xlink" fill="none" version="1.1" width="13.592652320861816" height="14.239919662475586" viewBox="0 0 13.592652320861816 14.239919662475586"><g><path d="M13.4713,12.7431C13.4713,12.9454,13.4308,13.1477,13.3499,13.3095C13.269,13.4713,13.1881,13.6331,13.0667,13.7949C12.9454,13.9163,12.7836,14.0376,12.6217,14.1186C12.4599,14.1995,12.2577,14.2399,12.0554,14.2399L1.49681,14.2399C1.29454,14.2399,1.09227,14.1995,0.930449,14.1186C0.728178,14.0376,0.56636,13.9567,0.444997,13.7949C0.323635,13.6736,0.202271,13.5117,0.121363,13.3095C0.0404543,13.1477,0,12.9454,0,12.7431L0,4.6927C0,4.28816,0.161817,3.92407,0.444998,3.64089C0.728178,3.35771,1.09227,3.19589,1.49681,3.19589L12.0958,3.19589C12.5004,3.19589,12.8645,3.35771,13.1477,3.64089C13.4308,3.92407,13.5927,4.28816,13.5927,4.6927L13.5927,6.87723L9.8304,6.87723C9.42586,6.87723,9.06177,6.9986,8.77859,7.28178C8.49541,7.56496,8.33359,7.88859,8.33359,8.33359C8.33359,8.61677,8.4145,8.8595,8.49541,9.06177C8.57632,9.26404,8.73813,9.42586,8.9404,9.54722C9.14268,9.70904,9.42586,9.78995,9.78995,9.78995L13.4713,9.78995L13.4713,12.7431ZM11.2868,2.46771L3.96452,2.46771C4.53088,2.18453,5.09724,1.8609,5.62315,1.57772L6.95814,0.849541C7.40314,0.606815,7.72678,0.444998,8.00996,0.28318C8.37404,0.0809087,8.73813,0,9.02131,0C9.30449,0,9.58767,0.0809087,9.78995,0.161817C10.0327,0.28318,10.2349,0.444998,10.3968,0.647269L11.2868,2.46771ZM9.10222,8.33359C9.10222,8.13132,9.18313,7.9695,9.30449,7.80768C9.42586,7.68632,9.62813,7.60541,9.8304,7.60541C10.0327,7.60541,10.1945,7.68632,10.3563,7.80768C10.4777,7.92905,10.5586,8.13132,10.5586,8.33359C10.5586,8.53586,10.4777,8.69768,10.3563,8.8595C10.2349,9.02131,10.0327,9.06177,9.8304,9.06177C9.62813,9.06177,9.46631,8.98086,9.30449,8.8595C9.18313,8.73813,9.10222,8.57632,9.10222,8.33359Z" fill="#050505" fill-opacity="0.7607843279838562"/></g></svg>