<svg xmlns="http://www.w3.org/2000/svg" xmlns:xlink="http://www.w3.org/1999/xlink" fill="none" version="1.1" width="14" height="15" viewBox="0 0 14 15"><defs><clipPath id="master_svg0_388_0211"><rect x="0" y="0" width="14" height="15" rx="0"/></clipPath></defs><g clip-path="url(#master_svg0_388_0211)"><g><path d="M13.67491328125,12.7444427734375C13.67491328125,12.9467427734375,13.63441328125,13.1490427734375,13.55351328125,13.3108427734375C13.47261328125,13.4726427734375,13.39171328125,13.6344427734375,13.27031328125,13.7962427734375C13.14901328125,13.9176427734375,12.98721328125,14.0389427734375,12.82531328125,14.1199427734375C12.66351328125,14.2008427734375,12.46131328125,14.2412427734375,12.25901328125,14.2412427734375L1.70042328125,14.2412427734375C1.49815328125,14.2412427734375,1.29588328125,14.2008427734375,1.1340622812499999,14.1199427734375C0.93179128125,14.0389427734375,0.76997328125,13.9580427734375,0.64861028125,13.7962427734375C0.52724828125,13.6749427734375,0.40588428125,13.5130427734375,0.32497628125,13.3108427734375C0.24406758125,13.1490427734375,0.20361328125,12.9467427734375,0.20361328125,12.7444427734375L0.20361328125,4.6940427734375C0.20361328125,4.2895027734375,0.36543028125,3.9254127734375,0.64861128125,3.6422327734375C0.93179128125,3.3590527734375,1.29588328125,3.1972327734375,1.70042328125,3.1972327734375L12.29941328125,3.1972327734375C12.70401328125,3.1972327734375,13.06811328125,3.3590527734375,13.35131328125,3.6422327734375C13.63441328125,3.9254127734375,13.79631328125,4.2895027734375,13.79631328125,4.6940427734375L13.79631328125,6.8785727734375L10.03401328125,6.8785727734375C9.62947328125,6.8785727734375,9.26538328125,6.9999427734375,8.98220328125,7.2831227734375C8.69902328125,7.5663027734375,8.53720328125,7.8899327734375,8.53720328125,8.3349327734375C8.53720328125,8.6181127734375,8.61811328125,8.8608427734375,8.69902328125,9.0631127734375C8.77993328125,9.2653827734375,8.94174328125,9.4272027734375,9.14401328125,9.5485627734375C9.34629328125,9.7103827734375,9.62947328125,9.7912927734375,9.99356328125,9.7912927734375L13.67491328125,9.7912927734375L13.67491328125,12.7444427734375ZM11.49041328125,2.4690527734375L4.16813328125,2.4690527734375C4.73449328125,2.1858727734375,5.30085328125,1.8622427734375,5.82676328125,1.5790627734375L7.16175328125,0.8508837734375C7.60675328125,0.6081577734375,7.93039328125,0.4463407734375,8.21357328125,0.2845227734375C8.57765328125,0.0822514734375,8.94174328125,0.0013427734375,9.22492328125,0.0013427734375C9.50810328125,0.0013427734375,9.79128328125,0.0822514734375,9.99356328125,0.1631597734375C10.23631328125,0.2845227734375,10.43851328125,0.4463407734375,10.60041328125,0.6486117734375L11.49041328125,2.4690527734375ZM9.30583328125,8.3349327734375C9.30583328125,8.1326627734375,9.38674328125,7.9708427734375,9.50810328125,7.8090227734375C9.62947328125,7.6876627734375,9.83174328125,7.6067527734375,10.03401328125,7.6067527734375C10.23631328125,7.6067527734375,10.39811328125,7.6876627734375,10.55991328125,7.8090227734375C10.68131328125,7.9303927734375,10.76221328125,8.1326627734375,10.76221328125,8.3349327734375C10.76221328125,8.5372027734375,10.68131328125,8.6990227734375,10.55991328125,8.8608427734375C10.43851328125,9.0226527734375,10.23631328125,9.0631127734375,10.03401328125,9.0631127734375C9.83174328125,9.0631127734375,9.66992328125,8.9822027734375,9.50810328125,8.8608427734375C9.38674328125,8.7394727734375,9.30583328125,8.5776627734375,9.30583328125,8.3349327734375Z" fill="#FFFFFF" fill-opacity="1"/></g></g></svg>