<svg xmlns="http://www.w3.org/2000/svg" xmlns:xlink="http://www.w3.org/1999/xlink" fill="none" version="1.1" width="12" height="12" viewBox="0 0 12 12"><defs><clipPath id="master_svg0_254_4325"><rect x="0" y="0" width="12" height="12" rx="0"/></clipPath></defs><g clip-path="url(#master_svg0_254_4325)"><g><g><path d="M6.331376875,1C6.331376875,1,6.331376875,1.933333,6.331376875,1.933333C6.331376875,1.933333,9.406716875,1.933333,9.406716875,1.933333C9.406716875,1.933333,3.998046875,7.342,3.998046875,7.342C3.998046875,7.342,4.656046875,8,4.656046875,8C4.656046875,8,10.064716875,2.59133,10.064716875,2.59133C10.064716875,2.59133,10.064716875,5.66667,10.064716875,5.66667C10.064716875,5.66667,10.998046875,5.66667,10.998046875,5.66667C10.998046875,5.66667,10.998046875,1,10.998046875,1C10.998046875,1,6.331376875,1,6.331376875,1C6.331376875,1,6.331376875,1,6.331376875,1Z" fill="#7B7B7B" fill-opacity="1"/></g><g><path d="M1,10L1,2Q1,1.901509,1.0192147,1.80491Q1.0384294,1.7083110000000001,1.0761205,1.617316Q1.113811,1.526322,1.16853,1.44443Q1.223249,1.362537,1.292893,1.292893Q1.362537,1.223249,1.44443,1.16853Q1.526322,1.113811,1.617316,1.0761205Q1.7083110000000001,1.0384294,1.80491,1.0192147Q1.901509,1,2,1L4.99902,1L4.99902,2L2,2L2,10L10,10L10,7L11,7L11,10Q11,10.09849,10.98078,10.19509Q10.96157,10.29169,10.92388,10.38268Q10.88619,10.47368,10.83147,10.55557Q10.77675,10.63746,10.70711,10.70711Q10.63746,10.77675,10.55557,10.83147Q10.47368,10.88619,10.38268,10.92388Q10.29169,10.96157,10.19509,10.98078Q10.09849,11,10,11L2,11Q1.901509,11,1.80491,10.98078Q1.7083110000000001,10.96157,1.617316,10.92388Q1.526322,10.88619,1.44443,10.83147Q1.362537,10.77675,1.292893,10.70711Q1.223249,10.63746,1.16853,10.55557Q1.113811,10.47368,1.0761205,10.38268Q1.0384294,10.29169,1.0192147,10.19509Q1,10.09849,1,10Z" fill-rule="evenodd" fill="#7B7B7B" fill-opacity="1"/></g></g></g></svg>